<?xml version="1.0" standalone="no"?>
<!DOCTYPE svg PUBLIC "-//W3C//DTD SVG 20010904//EN" "http://www.w3.org/TR/2001/REC-SVG-20010904/DTD/svg10.dtd">
<!-- Created using Krita: https://krita.org -->
<svg xmlns="http://www.w3.org/2000/svg" 
    xmlns:xlink="http://www.w3.org/1999/xlink"
    xmlns:krita="http://krita.org/namespaces/svg/krita"
    xmlns:sodipodi="http://sodipodi.sourceforge.net/DTD/sodipodi-0.dtd"
    width="480pt"
    height="480pt"
    viewBox="0 0 480 480">
<defs/>
<path id="shape0" transform="translate(21.6449999829652, 88.4249992806338)" fill="#347d9d" fill-rule="evenodd" stroke="#347d9d" stroke-width="2.4" stroke-linecap="square" stroke-linejoin="bevel" d="M149.595 187.275C148.515 183.795 147.855 179.055 147.615 173.055C147.375 167.055 147.155 161.815 146.955 157.335C146.395 152.255 146.235 147.795 146.475 143.955C146.835 138.195 146.295 129.495 145.935 121.215C145.575 112.935 144.923 109.29 144.015 102.495C143.409 97.9647 141.649 90.5847 138.735 80.355L131.115 76.335L117.015 67.875L105.135 59.175L89.835 46.395L77.655 34.215C74.1916 30.4881 71.0125 27.3301 67.695 23.895C62.7763 19.1571 57.3318 15.1555 51.615 11.535C48.1134 9.01199 43.9805 7.27808 39.855 5.535C36.2112 3.57105 31.6765 2.72061 27.45 1.485C22.5322 0.279022 18.6049 0.459883 14.22 0L0 1.26C2.00109 7.11891 4.37109 11.9189 7.11 15.66C11.2184 21.2716 14.583 26.187 18 29.97C20.278 32.492 23.038 35.957 26.28 40.365L30.825 45.135C31.5425 45.6607 33.0875 47.4457 35.46 50.49C37.8325 53.5343 40.5025 56.7443 43.47 60.12L51.75 69.435L61.83 80.955C63.5055 83.1326 65.8455 85.9526 68.85 89.415C71.8545 92.8774 75.3045 96.6574 79.2 100.755C80.4033 102.958 82.3083 105.798 84.915 109.275C87.5217 112.752 89.9617 116.832 92.235 121.515L98.775 133.095C101.541 138.381 103.681 142.121 105.195 144.315C107.467 147.606 107.808 148.402 110.835 152.715C113.862 157.028 112.395 155.835 115.995 159.795C119.595 163.755 119.055 163.275 123.015 167.235C125.655 169.875 128.515 172.415 131.595 174.855L139.575 182.175L142.935 187.155C143.535 186.755 145.755 186.795 149.595 187.275Z" sodipodi:nodetypes="czczzzcccccccccccczzcczccczczcczzzzcccc"/><path id="shape1" transform="translate(196.619998200635, 281.879997420379)" fill="#347d9d" fill-rule="evenodd" stroke="#347d9d" stroke-width="2.4" stroke-linecap="square" stroke-linejoin="bevel" d="M0 15.72L11.58 9L25.08 8.46C28.7591 8.28011 32.8791 7.80011 37.44 7.02C42.0009 6.23989 44.3609 5.91989 44.52 6.06C48.44 5.22 52.92 4.44 57.96 3.72C65.52 2.64 67.2 2.04 71.88 1.32C75 0.84 78.84 0.4 83.4 0L91.62 0.6C95.8116 1.24552 100.102 1.76754 103.68 3.18C105.194 4.19493 108.654 5.19493 114.06 6.18C119.466 7.16507 123.806 7.76507 127.08 7.98C132.422 8.45128 137.014 9.28019 139.02 11.34C135.541 15.2691 131.015 18.0469 125.94 20.22C122.188 23.2953 118.673 26.666 115.56 30.54C113.183 32.6857 111.004 34.8811 107.4 36.72C103.669 31.616 100.129 27.776 96.78 25.2C91.757 21.3359 86.58 16.98 81.18 15.18C75.78 13.38 75.5286 11.6127 67.32 10.8C59.1114 9.98734 56.22 9.3 52.26 9.66C48.3 10.02 44.1 10.2 39.78 10.92C36.9 11.4 32.685 11.855 27.135 12.285L17.16 13.38L11.46 13.5C8.74 14.38 4.92 15.12 0 15.72Z" sodipodi:nodetypes="ccczczzccczccccczzzzzcccc"/><path id="shape2" transform="translate(145.526893012749, 91.892502923034)" fill="#5b9f31" fill-rule="evenodd" stroke="#5b9f31" stroke-width="2.4" stroke-linecap="square" stroke-linejoin="bevel" d="M26.9431 184.557L29.1631 166.047C28.5431 154.087 28.3931 148.107 28.7131 148.107C29.0331 148.107 28.5531 142.987 27.2731 132.747L27.2731 113.067L27.2731 93.8675L18.6331 82.1675L13.4731 63.0275L8.5531 45.5675C6.6731 39.5136 4.7931 32.0145 2.9131 24.3875C1.97449 19.9647 0.967446 15.6788 0.333097 10.6475C0.312492 7.46103 -0.603192 3.95292 0.693097 0.327491C6.79527 -0.891813 11.9375 1.54958 16.8331 3.44749C21.2626 5.68431 24.5726 8.29433 27.5731 11.0075C31.9806 15.0147 35.4801 19.3623 38.6131 23.8475C42.3917 29.1016 45.0854 34.9584 47.4331 41.0075C49.7751 47.1875 52.2205 53.3675 53.7931 59.5475C56.489 65.5916 58.656 72.1646 62.3731 77.1875C65.7246 81.9815 69.182 86.3519 72.6931 90.5075C77.4828 96.0823 82.1925 101.617 85.4131 106.407C90.2611 112.547 93.5243 118.687 96.8131 124.827C100.977 133.979 100.182 137.51 99.6931 141.387C98.3253 148.434 91.9736 151.646 86.6731 155.667C80.1556 159.376 73.3449 162.059 66.5131 164.667C56.2752 169.844 52.0271 172.775 46.6531 176.127C42.4876 178.293 41.0306 181.5 38.7931 184.407C35.6931 185.467 31.7431 185.517 26.9431 184.557Z" sodipodi:nodetypes="cczcccccccccccccccccccccccc"/><path id="shape3" transform="translate(182.804987414499, 295.619979629615)" fill="#5b9f31" fill-rule="evenodd" stroke="#5b9f31" stroke-width="0.72" stroke-linecap="square" stroke-linejoin="bevel" d="M0 3.6375C4.99137 2.84425 9.28559 2.1184 13.875 1.44L26.205 1.35C30.964 0.837977 35.965 0.0333404 40.365 0L57.195 2.94L75.915 3.42L86.475 5.34L99.915 13.5L107.115 20.7L118.425 21.12L130.155 36.48C133.426 42.1184 135.952 47.198 138.615 52.38C141.537 58.1813 142.964 63.1281 144.855 68.34C147.306 75.7757 148.864 81.6033 149.715 86.16C150.826 90.6085 150.91 94.8858 151.095 99.18C147.264 101.412 141.847 98.0919 136.815 96.12C132.162 94.4132 128.333 91.8816 124.275 89.58C117.043 85.5274 110.918 80.8102 104.415 76.32C99.5335 72.8538 95.2219 69.1977 90.795 65.58C86.748 62.354 82.9441 58.6418 79.215 54.78L67.755 41.58L57.195 30.75L49.395 24.18L40.155 17.04L32.145 12L22.515 7.56L11.5725 4.17C9.70879 3.33062 5.85129 3.15312 0 3.6375Z" sodipodi:nodetypes="cccccccccccccccccccccccccccc"/><path id="shape4" transform="translate(161.144988894821, 167.939988394096)" fill="#24673d" fill-rule="evenodd" stroke="#24673d" stroke-width="0.48" stroke-linecap="square" stroke-linejoin="bevel" d="M0 0C1.21978 2.83978 1.68043 4.92043 2.34 7.2L4.005 14.265C5.09462 18.9485 5.73962 22.2335 5.94 24.12C6.24057 26.9497 7.66774 39.3921 7.74 40.995C7.78817 42.0636 7.89317 47.4636 8.055 57.195C8.28412 62.584 8.37412 65.899 8.325 67.14C8.25131 69.0015 8.53332 78.3524 8.775 81.36C9.01668 84.3676 9.19862 88.6952 9 91.26C8.86759 92.9698 9.43759 97.8148 10.71 105.795C11.29 100.937 11.405 95.986 13.095 91.35C14.5811 88.0167 16.4547 84.8286 18.9 81.855C22.2364 79.1623 24.15 76.2185 29.295 73.845C31.9492 72.015 34.5972 70.185 37.485 68.355C40.9879 65.5059 44.909 63.4931 47.88 59.58C49.5547 57.3461 51.5893 55.4067 52.02 52.155C52.7185 45.9221 52.9735 41.8721 52.785 40.005C52.5022 37.2044 49.1071 30.7401 48.15 28.845C47.1929 26.9499 41.0091 21.8203 39.96 20.79C39.2606 20.1031 36.0356 18.0631 30.285 14.67L21.33 9.945L12.6 6.21C10.14 4.83 8.265 4.17 5.805 2.79C4.8854 2.49133 2.9504 1.56133 0 0Z" sodipodi:nodetypes="ccczzczzzccccccczzzccccc"/><path id="shape5" transform="translate(221.789998105308, 292.832742328026)" fill="#24673d" fill-rule="evenodd" stroke="#24673d" stroke-width="0.48" stroke-linecap="square" stroke-linejoin="bevel" d="M0 2.60725C6.91532 1.94347 11.1753 1.44347 12.78 1.10725C15.187 0.602933 18.1343 0.689965 22.14 0.267255C26.1457 -0.155455 29.7041 0.000898934 35.46 0.207255C39.2973 0.344826 43.0573 0.764826 46.74 1.46726C50.1 2.30726 52.42 3.04725 53.7 3.68725C55.62 4.64725 59.13 6.74725 60.57 7.58725C61.53 8.14725 63.19 9.12725 65.55 10.5273L70.62 14.2473C73.0974 16.3349 75.0174 18.2149 76.38 19.8873C77.7426 21.5596 79.7226 23.9196 82.32 26.9673C80.2417 27.6894 78.2884 28.5678 75.6 28.5273C72.4804 28.7893 70.1404 28.9293 68.58 28.9473C66.2394 28.9742 57.7283 27.7987 55.26 26.9073C52.7917 26.0158 46.6791 24.0333 45.06 23.4873C43.4409 22.9412 37.1045 19.3993 34.56 18.2673C32.0155 17.1352 23.4721 12.2966 23.16 12.0873C22.9519 11.9477 19.8519 10.1677 13.86 6.74725C11.7589 5.62838 9.44945 4.71781 7.2 3.74725C5.27966 3.23563 2.87966 2.85563 0 2.60725Z" sodipodi:nodetypes="czzzczzcczcczzzzzccc"/><path id="shape6" transform="matrix(1.262670896016 0 0 1.26712323831194 93.2246027323613 304.393028219684)" fill="#572929" fill-rule="evenodd" stroke="#572929" stroke-width="2.4" stroke-linecap="square" stroke-linejoin="bevel" d="M18.4011 8.08991C16.4807 7.24429 14.783 5.95003 13.308 4.20714L11.7539 2.2948L10.0449 0.663266L8.02605 0C6.9674 0.0387309 6.11209 0.254978 5.46012 0.648742C4.80815 1.04251 4.08679 1.62992 3.29603 2.411L1.41273 5.34486L0.386363 9.12112C-0.0461329 14.6112 -0.115526 17.6387 0.178184 18.2035C0.618749 19.0507 0.429936 19.2589 0.642956 20.1497C0.855976 21.0405 1.53861 23.1756 2.6376 25.0008C3.73659 26.826 4.78233 27.6732 5.87164 28.656C6.96095 29.6388 8.73773 31.3185 10.6549 31.8946C12.5721 32.4708 13.2208 32.9549 14.3392 32.9549C15.0848 32.9549 16.1838 32.8937 17.6362 32.7712L21.7901 29.7209L26.9752 25.0201L31.4002 24.0373L30.185 10.3073L28.0258 6.27924C29.203 7.05912 22.556 11.033 21.8675 10.0845C20.6862 10.3234 19.5308 9.65851 18.4011 8.08991Z" sodipodi:nodetypes="ccccczccczzzzzzcccccccc"/><path id="shape7" transform="matrix(1.262670896016 0 0 1.26712323831194 122.57769153784 332.694331940191)" fill="#572929" fill-rule="evenodd" stroke="#572929" stroke-width="1.2" stroke-linecap="square" stroke-linejoin="bevel" d="M6.42356 3.34377L6.51155 5.01565L7.3035 6.42356L8.09544 7.3035L9.50335 8.66391L11.0872 9.89583L11.6152 10.9112L11.9672 13.7271L11.6152 17.0708C11.3219 20.9426 11.2632 23.2011 11.4392 23.8464C11.6152 24.4916 11.6445 25.5769 11.5272 27.1021L11.7032 31.7658L12.1432 36.3415L10.8233 39.5973L8.53541 42.7651L5.54362 47.0768L3.78374 50.2445L2.99179 52.2684L0 55.2602L1.4079 55.8762L2.72781 52.6204L5.8076 47.8687L10.2953 41.5331L12.7591 36.2535L13.5511 30.7979L14.079 22.7024L14.167 17.5988L12.9351 10.9992L13.815 9.80783L15.223 10.2393L18.8787 12.8071L20.4065 15.1989C22.9384 16.7395 25.798 18.3039 27.694 19.2067L37.1095 22.4705L42.7251 24.3264L46.7248 25.6062L51.1645 27.6621L51.7165 30.5339C51.1302 33.1745 50.0839 35.6149 49.1886 37.6374L47.5568 43.8689L44.6449 53.7804L42.9489 59.4044L44.6687 58.1169C45.8171 51.1076 46.1496 44.7048 50.6525 37.0855L51.5884 30.4699L51.4765 26.3102L46.9888 23.7584L34.8456 19.5347L23.4064 14.431L19.0227 11.6472L17.0708 10.2073L17.0708 8.66391L18.0388 6.77553L19.6227 3.87173L21.2065 2.55182L25.0783 2.02386L25.7822 2.02386L20.7666 0L13.815 0.175988L8.88739 1.23192C8.88739 1.23192 8.06611 1.93587 6.42356 3.34377Z" sodipodi:nodetypes="ccccccccczccccccccccccccccccccccccccccccccccccccccccccccccccc"/><path id="shape8" transform="matrix(1.262670896016 0 0 1.26712323831194 115.241430625482 236.666233879224)" fill="#572929" fill-rule="evenodd" stroke="#572929" stroke-width="1.2" stroke-linecap="square" stroke-linejoin="bevel" d="M0 60.8082C0.538417 58.9863 0.865342 57.1643 2.11971 55.3424L5.48496 51.6759L10.6647 46.3525L14.76 41.0848C16.8407 39.2689 18.2298 37.453 21.2098 35.6371C24.5395 33.8255 26.1136 33.1801 27.995 32.3306C31.1752 31.4792 33.3631 30.2983 37.895 29.8959C41.0118 29.7386 42.609 29.9599 44.82 30.0282L54.3053 31.3359L64.9389 30.962C69.6458 30.5823 73.7045 29.5568 77.464 28.2331C79.9275 26.828 83.0521 25.2293 86.4749 24.3539L103.646 18.1152C108.916 15.7589 114.621 13.6911 120.457 11.7111L136.324 6.22543L143.996 2.63097L151.699 0.00132286C152.764 0.00707992 153.804 -0.0885828 155.051 0.645431L164.2 5.20673L158.291 6.55721L157.388 9.47516C153.907 11.6751 150.908 13.0737 147.66 14.5765C142.552 16.8517 139.815 18.339 136.055 20.1659C134.227 21.1791 131.537 22.6215 129.256 23.8606L120.976 27.5553C116.028 29.5169 110.729 31.1292 105.551 32.8606L89.5305 39.3976C85.6416 42.0722 82.5944 45.0823 77.58 47.3082C77.1814 50.2545 75.5736 53.2008 73.9353 56.147C72.6611 58.2646 70.1459 59.1456 67.6353 60.0312C64.0928 61.6511 60.5904 63.3907 56.8051 64.2847C55.7259 65.3749 53.1583 63.7769 49.7347 67.1546C48.2488 67.2099 45.8923 71.164 43.8709 73.2282C43.0082 74.5735 41.5526 75.9188 39.9355 77.2641L37.6401 78.8559L39.2501 82.5976C40.4939 82.6757 41.5047 81.4616 43.285 80.5041C45.0957 78.6555 47.881 78.0281 50.22 76.7147C53.975 75.6912 57.7301 75.3964 61.4851 75.1135L78.575 74.0429L90.3701 73.967L100.29 74.2323L105.654 75.1035L103.175 75.1988L97.2 76.2882L90.0101 76.8565L78.8702 77.207L67.5201 77.927L56.615 79.0829L48.6201 80.627L43.5053 82.0482L38.52 84.4483L35.64 84.4483C34.918 83.4114 34.5029 82.3745 34.02 81.3376L32.9947 78.9312L30.78 76.8282L14.94 77.5482L2.52 69.6282C2.52 69.6282 1.68 66.6882 0 60.8082Z" sodipodi:nodetypes="cccccccccccccccccccccccccccccccccccccccccccccccccccccccccccc"/><path id="shape9" transform="matrix(1.262670896016 0 0 1.26712323831194 311.299297747572 220.958088264971)" fill="#572929" fill-rule="evenodd" stroke="#572929" stroke-width="1.2" stroke-linecap="square" stroke-linejoin="bevel" d="M1.58255 10.4913L3.30766 9.84495C5.1414 8.91688 5.68465 8.41746 11.2502 6.24982L19.5979 3.05392L29.0626 0.551112C30.655 0.245416 32.2475 -0.404995 33.84 0.355221L36.8328 1.65803L37.0277 4.56495L37.6277 7.32495L36.5477 9.79598C35.3405 10.7317 33.8402 10.7908 32.4641 11.2214L25.4066 13.0752L17.6292 15.8842C15.5645 16.5946 13.7015 17.506 11.8204 18.3993C10.5847 18.8083 9.4852 19.2513 7.52299 19.4793C4.96668 19.282 3.38381 18.7614 1.33806 18.3945L0 15.0277C0.586659 14.7344 1.11418 13.2223 1.58255 10.4913Z" sodipodi:nodetypes="cccccccccccccccccc"/><path id="shape10" transform="matrix(1.262670896016 0 0 1.26712323831194 357.091531623211 212.166964119627)" fill="#572929" fill-rule="evenodd" stroke="#572929" stroke-width="1.2" stroke-linecap="square" stroke-linejoin="bevel" d="M0 9.10054C0.466767 7.79514 0.918057 6.48202 1.01234 4.99103C4.66834 3.99103 8.38943 2.99103 12.9789 1.99103L25.3426 0.124865L28.9651 0C30.1445 0.313673 30.8672 1.0825 31.4815 1.95924L33.5675 6.10281C32.5567 7.35221 31.1467 7.80594 30.6415 10.0628L26.7004 10.7682L18.4394 12.5069L9.80661 14.8359L4.51128 15.2131C2.7727 15.1457 1.64973 14.7277 1.2415 13.9028C0.813832 15.1813 0.4 13.5805 0 9.10054Z" sodipodi:nodetypes="cccccccccccccc"/><path id="shape11" transform="matrix(1.262670896016 0 0 1.26712323831194 395.855492614374 210.162306680168)" fill="#572929" fill-rule="evenodd" stroke="#572929" stroke-width="1.2" stroke-linecap="square" stroke-linejoin="bevel" d="M0.537033 4.39362L2.90725 0.648973C7.4847 0.216324 10.8534 -1.18424e-15 13.0134 0C15.1734 1.18424e-15 18.1223 0.223676 21.86 0.671027L24.8041 1.86357C24.8626 5.97635 26.2299 5.39434 27.1562 6.39405C27.3783 8.57256 25.4841 11.454 23.4688 14.3757C21.6911 13.6437 21.0595 12.5549 16.4636 12.7005C14.8737 12.4951 13.2231 12.326 10.7 12.6785C8.41869 12.3892 6.27196 12.9048 3.82214 11.6082C2.02654 11.0622 1.42909 9.77005 1.14153 8.28486C-0.141469 9.6107 -0.342967 8.31362 0.537033 4.39362Z" sodipodi:nodetypes="cczccccccccc"/><path id="shape12" transform="matrix(1.262670896016 0 0 1.26712323831194 425.927456767974 213.66573116505)" fill="#572929" fill-rule="evenodd" stroke="#572929" stroke-width="1.2" stroke-linecap="square" stroke-linejoin="bevel" d="M0.746168 2.85081L0 8.85081C2.66528 9.76907 2.86008 12.5328 2.31876 13.4867C3.84015 14.2693 5.60439 14.568 7.30282 14.9977C10.0976 15.9825 13.1007 16.1371 16.0781 16.3936L19.0863 9.82768C17.9461 8.89774 17.3363 7.36375 17.5254 4.92C16.6904 3.67227 15.4218 2.77024 13.6366 2.28C10.8344 0.756342 7.57819 0.217012 4.21533 0C3.18232 1.7259 2.02594 2.67617 0.746168 2.85081Z" sodipodi:nodetypes="cccccccccc"/><path id="shape13" transform="matrix(1.262670896016 0 0 1.26712323831194 445.061204635677 222.143401974456)" fill="#572929" fill-rule="evenodd" stroke="#572929" stroke-width="1.2" stroke-linecap="square" stroke-linejoin="bevel" d="M0.457445 0.558486L0 6.68108C1.49311 7.67021 3.85024 7.40701 3.41771 11.1872C4.99484 11.5551 6.3055 12.1221 8.5903 11.9611C10.4151 11.8491 12.3243 12.074 13.975 11.268C15.5176 10.8457 17.0849 10.4726 18.4448 9.68595C17.9002 5.95076 15.3361 3.91841 12.3455 2.24562C10.5612 0.57161 8.29539 0.176971 5.94766 0C5.56752 0.852324 3.73745 1.03849 0.457445 0.558486Z" sodipodi:nodetypes="ccccccccc"/>
</svg>
