<svg viewBox="32.64 297.6 425.28000000000003 145.92" xmlns:xlink="http://www.w3.org/1999/xlink" xmlns="http://www.w3.org/2000/svg" style="max-height: 500px" width="425.28000000000003" height="145.92">
<defs/>
<path d="M133.11 167.182C118.259 165.26 108.023 154.122 106.937 139.656C105.706 123.247 110.101 107.66 113.375 91.896C115.707 80.6639 118.257 69.4749 120.432 58.213C121.587 52.2357 122.285 45.8002 116.287 41.873C110.536 38.1068 104.401 39.6586 98.7549 42.7816C91.2519 46.9318 85.8753 53.2751 81.5451 60.5096C69.9144 79.9418 63.8056 101.338 59.664 123.372C57.7299 133.662 56.2946 144.044 54.5509 154.371C52.6391 165.693 47.5603 169.522 37.6514 167.251C31.7318 165.894 29.3515 162.677 29.01 155.597C28.492 144.857 30.6443 134.379 32.3664 123.894C36.4883 98.796 40.8617 73.7423 42.5924 48.3218C43.1284 40.45 39.004 37.4688 31.8608 40.7772C25.1797 43.8716 20.2934 49.1143 15.643 54.6079C14.8908 55.4965 14.2658 56.4916 13.5319 57.397C11.2817 60.1733 8.86382 63.2066 4.81429 61.4922C0.513295 59.6713 -0.371837 55.7119 0.123341 51.4271C0.274037 50.1235 0.699574 48.8213 1.18377 47.5911C7.67055 31.1092 29.1585 16.3724 46.6656 16.3625C58.8345 16.3556 66.2291 23.5479 66.6032 35.8541C66.7196 39.6835 66.7086 43.5216 66.6031 47.3514C66.4981 51.1638 66.2012 54.9708 65.9104 60.1756C68.292 55.4986 70.0097 51.8776 71.9424 48.3752C78.4059 36.6623 86.3584 26.3714 98.792 20.3321C107.212 16.2425 116.143 15.3792 125.139 16.8355C138.949 19.0708 147.119 29.7325 147.531 45.1594C147.855 57.2891 144.395 68.8508 142.114 80.5909C139.197 95.6065 135.103 110.386 133.092 125.582C132.852 127.392 132.676 129.228 132.686 131.05C132.754 143.551 142.554 149.394 153.536 143.356C158.876 140.42 162.783 136.834 163.684 129.762C165.653 114.304 172.998 101.412 185.619 91.8877C193.002 86.3163 201.217 83.0378 210.652 83.3677C212.893 83.4461 215.43 83.489 216.286 85.7478C217.768 89.655 220.606 89.5553 223.928 89.4936C233.394 89.3177 235.697 92.3126 234.174 101.742C232.161 114.214 229.071 126.511 228.169 139.168C227.971 141.938 227.734 144.665 230.301 146.37C233.096 148.226 235.421 146.249 237.557 144.746C244.594 139.795 251.105 133.35 254.727 126.265C258.138 119.594 256.304 110.369 255.34 102.336C255.093 100.285 251.829 101.203 249.93 101.158C241.748 100.961 238.612 96.7243 240.717 88.8019C241.815 84.67 244.374 82.6139 248.554 82.4547C250.218 82.3914 251.895 82.3217 253.551 82.4448C256.959 82.6979 258.456 81.4556 259.139 77.8223C262.414 60.4023 267.03 43.3992 277.05 28.4064C280.119 23.814 283.649 19.598 288.21 16.3788C302.052 6.60864 315.905 12.9879 317.65 29.8408C319.538 48.0775 313.408 63.5197 301.517 77.0162C300.212 78.497 298.887 79.9597 296.691 82.4147C302.297 82.4147 306.864 82.3862 311.43 82.4241C314.88 82.4526 318.811 81.7383 319.958 86.4493C321.053 90.945 319.535 94.7619 315.92 97.476C312.506 100.039 308.436 101.054 304.17 101.083C297.337 101.13 290.502 101.244 283.673 101.09C280.122 101.01 278.488 102.136 278.585 105.937C278.828 115.399 277.816 124.932 280.499 134.23C283.878 145.942 293.675 150.473 304.625 145.258C309.842 142.774 313.818 138.706 317.568 134.426C318.724 133.107 318.952 131.46 318.984 129.747C319.213 117.464 322.226 105.713 325.977 94.1263C328.561 86.1455 333.945 82.7921 342.395 83.5198C346.786 83.898 349.357 85.9037 348.605 90.5941C347.974 94.5261 347.147 98.4409 346.152 102.298C343.612 112.146 342.063 122.171 340.821 132.236C340.454 135.21 339.421 139.313 343.202 140.605C346.546 141.747 348.474 138.257 350.105 135.879C357.263 125.443 361.2 113.57 364.909 101.621C365.748 98.9187 366.408 96.1611 367.247 93.4593C369.473 86.2923 373.448 83.4205 380.899 83.5092C387.297 83.5854 389.476 86.0106 388.261 92.2567C385.974 104.012 383.437 115.718 381.11 127.465C380.304 131.537 379.393 135.613 379.458 139.814C379.497 142.336 379.352 144.963 381.937 146.456C384.781 148.099 387.056 146.263 389.289 144.903C398.536 139.272 401.948 130.806 402.091 120.214C402.213 111.204 404.717 102.463 407.419 93.8878C409.838 86.2106 417.83 81.9496 425.697 83.7094C429.186 84.4897 430.435 86.7313 429.793 89.9548C428.429 96.7974 426.903 103.609 425.324 110.406C424.831 112.529 424.347 114.602 424.874 118.241C426.551 115.255 427.716 113.269 428.798 111.24C433.484 102.452 439.431 94.7358 447.591 88.864C451.32 86.1802 455.516 84.5791 459.974 83.7748C469.144 82.1205 475.703 88.5595 474.332 97.8267C473.675 102.268 472.601 106.651 472.058 111.103C471.636 114.555 469.955 118.68 474.485 120.78C477.343 122.104 482.155 118.937 484.149 114.585C487.959 106.267 493.168 99.0213 500.259 93.2199C507.967 86.9129 516.625 83.0627 526.824 83.3983C529.071 83.4722 531.546 83.6091 532.457 85.8336C534.025 89.6611 536.908 89.5568 540.216 89.5026C549.267 89.3543 551.887 92.4954 550.354 101.528C548.656 111.532 546.729 121.498 545.119 131.515C544.567 134.945 544.441 138.486 544.528 141.966C544.646 146.676 547.414 148.425 551.483 146.243C557.805 142.854 562.043 137.178 566.38 131.681C567.155 130.698 566.83 129.458 566.767 128.292C564.75 91.0573 570.952 55.3869 587.156 21.6388C589.036 17.7227 591.389 14.0715 594.187 10.7404C600.726 2.95703 608.862 -2.18078 619.125 0.913454C629.463 4.03028 631.52 13.6527 632.564 22.9555C634.607 41.162 629.803 58.2827 623.359 75.0266C615.775 94.7349 605.403 112.969 593.045 130.025C589.749 134.574 590.452 138.311 593.008 142.358C595.547 146.378 600.537 148.048 605.277 146.784C609.223 145.732 612.52 143.517 615.819 141.222C620.421 138.021 623.581 139.236 625.093 144.608C626.644 150.121 624.11 156.825 618.834 160.886C604.648 171.81 582.346 170.048 573.842 153.314C573.547 152.733 573.074 152.242 572.665 151.685C570.233 151.698 569.329 153.777 567.968 155.068C563.227 159.565 558.352 163.836 552.114 166.161C543.2 169.483 535.255 166.998 529.731 159.279C528.687 157.82 528.216 155.927 526.234 154.728C524.347 156.716 522.55 158.867 520.494 160.734C505.533 174.323 484.228 167.442 480.151 147.519C479.14 142.581 478.13 140.668 472.251 141.668C456.286 144.382 446.912 134.354 449.548 118.412C449.889 116.35 451.015 113.685 448.605 112.534C446.157 111.364 444.722 113.957 443.475 115.556C434.899 126.548 430.463 139.441 426.718 152.637C425.993 155.194 425.237 157.746 424.377 160.26C422.649 165.316 418.846 167.762 413.714 167.714C408.933 167.67 405.638 164.997 403.797 160.573C403.358 159.518 402.879 158.481 402.441 157.487C400.034 157.118 399.02 158.988 397.649 160.019C391.337 164.77 384.273 167.508 376.404 167.814C368.413 168.124 363.248 164.384 360.561 156.667C359.703 154.201 359.119 151.639 358.123 148.102C353.91 156.406 350.172 164.302 341.265 166.917C331.468 169.794 325.619 164.075 320.766 155.901C310.948 164.009 300.492 169.015 287.623 167.512C274.644 165.997 265.793 159.281 260.532 147.282C256.756 148.993 254.934 152.099 252.492 154.443C247.779 158.966 242.957 163.319 236.854 165.877C227.702 169.712 219.375 167.315 213.518 159.289C212.459 157.838 211.464 156.34 210.216 154.543C208.184 156.677 206.448 158.64 204.566 160.454C194.004 170.634 179.387 170.351 169.59 159.53C167.351 157.058 165.952 157.12 163.45 158.943C154.557 165.423 144.819 169.197 133.11 167.182M598.733 89.6945C605.399 75.6763 611.111 61.3095 613.545 45.8895C614.707 38.5284 616.049 31.0916 614.125 23.6057C613.616 21.6257 613.169 19.5095 610.791 19.1406C608.331 18.759 607.251 20.8077 606.394 22.5571C604.716 25.9843 603.057 29.4567 601.82 33.0579C595.359 51.8639 592.041 71.3484 589.738 91.024C589.183 95.7615 589.138 100.559 588.859 105.328C589.364 105.454 589.868 105.58 590.373 105.706C593.043 100.589 595.712 95.4726 598.733 89.6945M521.137 135.05C523.457 123.941 525.777 112.832 528.138 101.525C523.806 100.849 521.04 102.48 518.416 104.102C507.684 110.736 499.696 130.672 502.754 142.856C504.205 148.636 510.288 150.531 514.825 146.489C518.014 143.648 519.796 139.886 521.137 135.05M206.181 102.129C191.742 109.525 186.907 122.352 186.308 137.495C186.134 141.88 186.203 146.442 191.411 148.256C195.469 149.668 199.2 147.303 202.378 141.657C202.704 141.079 203.051 140.498 203.268 139.876C207.589 127.478 208.988 114.478 211.687 101.995C209.629 100.571 208.278 101.553 206.181 102.129M289.145 42.0688C285.39 53.215 282.429 64.5143 281.566 77.45C287.997 72.1277 291.711 66.4542 294.705 60.3448C298.624 52.3463 300.988 43.9307 299.943 34.8752C299.732 33.0504 299.401 31.045 297.377 30.4128C295.409 29.7982 294.277 31.4287 293.507 32.8488C292.013 35.608 290.776 38.507 289.145 42.0688Z" stroke-linejoin="bevel" stroke-linecap="square" stroke-width="0" stroke="#000000" stroke-opacity="0" fill="#502626" transform="matrix(0.480499515035761 0 0 0.482020076237094 147.936563667333 303.667400038652)" id="shape0"/><path d="M31.3649 70.596C27.2848 84.0907 25.9455 97.4383 28.5292 110.929C30.1007 119.134 33.9376 126.381 42.6305 128.774C51.5491 131.228 59.3191 128.322 65.73 121.584C72.6978 114.261 76.5307 105.223 79.8845 95.9729C86.2547 78.4035 90.0757 60.1578 93.7982 41.8916C95.9923 31.1255 107.445 26.3796 116.866 32.2414C121.013 34.8216 121.128 38.7986 120.068 42.8605C115.949 58.6438 112.693 74.5985 110.046 90.69C108.553 99.7643 107.785 108.861 108.511 118.042C109.256 127.464 115.799 131.541 124.621 128.133C129.933 126.08 133.714 122.08 137.408 117.978C138.076 117.235 138.712 116.456 139.435 115.769C142.109 113.226 144.188 108.868 148.804 110.785C153.753 112.841 152.572 117.707 152.419 121.749C152.346 123.67 151.864 125.929 150.739 127.401C142.146 138.648 132.918 148.972 117.63 151.08C100.489 153.444 88.6876 146.509 83.1275 130.286C82.7567 129.204 82.3677 128.129 81.7833 126.472C78.2872 131.498 75.3863 136.287 71.3506 140.248C53.4989 157.771 22.702 154.421 9.0667 133.432C2.08185 122.68 -0.360437 110.758 0.0421443 98.188C0.711051 77.3037 5.77111 57.6192 17.8304 40.2946C35.6193 14.7386 60.6712 2.06405 91.4265 0.266012C104.443 -0.494974 117.398 0.289694 130.07 3.75545C138.113 5.95486 140.664 9.16549 139.218 15.2539C137.455 22.6755 131.135 26.8323 123.87 25.2619C115.407 23.4323 106.957 21.7374 98.2194 21.689C64.3569 21.5014 41.8567 37.7935 31.3649 70.596Z" stroke-linejoin="bevel" stroke-linecap="square" stroke-width="0" stroke="#000000" stroke-opacity="0" fill="#532727" transform="matrix(0.480499515035761 0 0 0.482020076237094 40.3551288609096 311.488890056491)" id="shape1"/><path d="M7.49873 0C14.1209 0.153809 20.2945 -0.529724 26.3163 1.4173C35.8317 4.4939 40.9897 11.9692 40.2365 21.8808C39.4173 32.661 32.8893 39.993 22.8659 41.3768C22.2082 41.4675 21.5398 41.4883 20.8754 41.5217C9.68428 42.084 9.68422 42.0833 9.67268 53.5591C9.67067 55.5563 9.52424 57.5662 9.69798 59.548C10.0462 63.5198 8.5703 65.345 4.36653 65.3051C0.237714 65.2657 -0.0130489 62.9374 0.000470081 59.7578C0.0754831 42.1161 0.0295841 24.4738 0.0382211 6.83167C0.0415171 0.083313 0.0573551 0.083313 7.49873 0M30.1722 22.2957C30.2315 14.3436 26.8837 10.1058 20.0492 9.62396C17.8983 9.47235 15.7265 9.64056 13.5699 9.5398C10.8511 9.41284 9.60811 10.5486 9.6602 13.3398C9.75322 18.3244 9.67555 23.312 9.70289 28.2982C9.71116 29.8079 9.78996 31.2135 11.6351 31.8998C19.2425 34.7293 27.1222 31.0063 30.1722 22.2957Z" stroke-linejoin="bevel" stroke-linecap="square" stroke-width="0" stroke="#000000" stroke-opacity="0" fill="#1d341e" transform="matrix(0.480499515035761 0 0 0.482020076237094 121.458064054502 405.601260577955)" id="shape2"/><path d="M37.4928 11.9798C35.2666 11.5661 33.3548 11.04 31.4783 10.4091C28.6298 9.45142 25.7788 8.62531 22.7205 8.67896C18.0393 8.76112 13.9069 10.0648 12.5164 14.9768C11.101 19.9768 14.5013 22.7525 18.427 24.6913C22.4475 26.6769 26.7135 28.1634 30.7452 30.1287C39.8426 34.5634 43.4911 41.7383 41.4764 50.8007C39.4674 59.8372 32.5429 65.2619 22.788 65.7297C15.5941 66.0747 8.95623 64.4456 2.64815 61.0491C-0.116619 59.5604 -0.728923 57.9006 0.86971 55.0364C2.39675 52.3005 3.82961 51.5404 6.74965 53.26C12.016 56.3612 17.6629 58.2531 23.9011 56.5143C27.819 55.4221 30.8976 53.3698 31.6551 49.0192C32.4915 44.2153 30.1977 40.9086 26.1589 38.842C20.9834 36.1937 15.5127 34.1047 10.4194 31.3176C4.00362 27.8069 1.38222 21.9924 2.43172 15.0246C3.6708 6.79823 10.0974 0.898628 18.8131 0.149055C24.35 -0.327202 29.7569 0.320503 34.9919 2.34229C41.6537 4.91517 41.9217 5.69416 37.4928 11.9798Z" stroke-linejoin="bevel" stroke-linecap="square" stroke-width="0" stroke="#000000" stroke-opacity="0" fill="#1d341e" transform="matrix(0.480499515035761 0 0 0.482020076237094 212.985710682902 405.541151634388)" id="shape3"/><path d="M1.74772 28.9654C-1.07244 20.5027 -0.889546 12.7034 5.3578 6.27975C11.4971 -0.0327457 19.2324 -1.26456 27.4939 1.15494C37.12 3.97415 42.4614 13.2884 40.8441 23.959C39.4946 32.862 31.7353 39.3456 22.3271 39.8289C13.3909 40.2879 6.33796 37.4505 1.74772 28.9654M31.43 21.5851C31.363 12.4014 25.3994 6.35641 18.3066 8.28268C12.5172 9.85495 8.63267 15.1957 9.08378 20.9627C9.52873 26.6516 14.1146 31.5522 19.4884 32.0818C25.2774 32.6522 29.4357 29.2615 31.43 21.5851Z" stroke-linejoin="bevel" stroke-linecap="square" stroke-width="0" stroke="#000000" stroke-opacity="0" fill="#1d341e" transform="matrix(0.480499515035761 0 0 0.482020076237094 237.141901264171 418.051185854598)" id="shape4"/><path d="M25.8304 39.4556C21.9126 39.7937 18.405 40.106 14.9592 39.2671C4.2119 36.6506 -2.00734 26.2985 0.587328 15.4346C3.13933 4.74918 14.1541 -1.91067 25.3057 0.489168C34.9283 2.55997 40.9968 9.77042 41.3439 19.5458C41.6767 28.9157 36.1282 36.2066 25.8304 39.4556M30.5439 25.8184C31.0041 24.4038 31.6377 23.0197 31.8938 21.5691C32.8969 15.8887 28.9264 9.96701 23.1196 8.31247C18.1402 6.89371 12.5701 9.93942 10.3914 15.2722C8.12187 20.8274 10.2553 27.7235 15.1337 30.6017C20.3597 33.6848 25.7397 32.2126 30.5439 25.8184Z" stroke-linejoin="bevel" stroke-linecap="square" stroke-width="0" stroke="#000000" stroke-opacity="0" fill="#1d341e" transform="matrix(0.480499515035761 0 0 0.482020076237094 320.374215311495 418.071602494333)" id="shape5"/><path d="M14.8991 39.366C2.74824 35.1169 -2.54916 24.9125 1.17057 13.6374C4.56464 3.34953 16.4779 -2.42787 27.1875 0.980881C32.6696 2.72581 36.0326 6.62212 38.4711 11.6148C40.152 15.056 39.5022 17.1727 35.6738 18.416C29.3394 20.4733 23.0833 22.7731 16.8069 25.0063C15.2745 25.5515 13.7913 26.2351 12.2126 26.8851C15.9979 32.0067 19.8637 33.2984 25.7677 30.4993C29.5456 28.7081 31.3174 29.8492 32.7699 33.0816C34.4691 36.8628 31.0622 37.2242 29.0819 38.199C24.7102 40.3508 19.9751 39.7351 14.8991 39.366M24.8792 8.843C16.1732 5.62517 8.96461 10.9548 10.0459 20.3438C16.3641 18.1871 22.6378 16.2679 28.43 13.4772C27.8829 11.0138 26.6017 10.1917 24.8792 8.843Z" stroke-linejoin="bevel" stroke-linecap="square" stroke-width="0" stroke="#000000" stroke-opacity="0" fill="#1d341e" transform="matrix(0.480499515035761 0 0 0.482020076237094 144.131491447949 418.10722381832)" id="shape6"/><path d="M0.208022 36.6466C0.0752695 26.5499 -0.000535494 16.8894 0.0341325 7.22934C0.0426765 4.84665 -0.57097 1.94754 3.0652 1.36356C6.26796 0.849091 8.69526 1.59372 8.95503 5.83457C12.8038 3.56723 15.8715 1.05887 19.9069 0.309968C28.859 -1.35159 35.4329 3.78549 35.5106 12.872C35.5718 20.0346 35.4039 27.2007 35.5659 34.3601C35.6425 37.7458 34.4326 39.2249 30.9767 39.2183C27.6406 39.2119 26.0715 37.9389 26.1295 34.4929C26.2333 28.3311 26.1914 22.1659 26.138 16.0028C26.1132 13.1351 26.0765 9.98331 22.7602 8.88706C19.2301 7.72019 15.8247 8.33762 13.1223 11.2076C10.5953 13.8913 9.53554 17.1631 9.47981 20.7711C9.41548 24.9348 9.54011 29.1026 9.4153 33.2636C9.35505 35.2733 10.3294 37.9795 7.39039 38.7578C4.8733 39.4244 2.07344 40.1118 0.208022 36.6466Z" stroke-linejoin="bevel" stroke-linecap="square" stroke-width="0" stroke="#000000" stroke-opacity="0" fill="#1d341e" transform="matrix(0.480499515035761 0 0 0.482020076237094 345.025258761644 418.141269720796)" id="shape7"/><path d="M3.48923 35.6536C0.835853 32.7438 0.150245 29.4475 0.0740725 26.1146C-0.0892575 18.9631 0.0801765 11.8046 0.0026615 4.65021C-0.0349965 1.16987 1.68815 0.0403515 4.95243 0.000800547C8.52256 -0.0423515 9.52476 1.65974 9.45115 4.93275C9.31272 11.0864 9.39457 17.246 9.44681 23.4026C9.47178 26.3384 9.98283 29.2854 13.0834 30.4532C16.3054 31.6667 19.3751 30.7446 21.8081 28.3294C24.5253 25.632 25.8202 22.2743 25.824 18.4258C25.8288 13.7665 25.9537 9.10517 25.8459 4.44886C25.7705 1.19093 27.2978 0.0402295 30.3835 0.0167925C33.5328 -0.00713345 35.439 0.795296 35.3888 4.47236C35.2615 13.7893 35.3673 23.1093 35.3243 32.4277C35.3139 34.6794 35.8492 37.343 32.4614 37.8514C29.3994 38.3108 26.7137 38.0693 26.2588 33.6264C18.9154 38.7032 11.7093 42.2349 3.48923 35.6536Z" stroke-linejoin="bevel" stroke-linecap="square" stroke-width="0" stroke="#000000" stroke-opacity="0" fill="#1d341e" transform="matrix(0.480499515035761 0 0 0.482020076237094 272.498062781248 418.698175747546)" id="shape8"/><path d="M1.25504 35.6477C-1.0578 33.409 0.293979 31.8027 1.58423 30.212C3.2923 28.1064 4.77988 29.6399 6.35825 30.4844C9.15958 31.9834 11.9917 33.4419 15.3331 32.2035C16.7865 31.6647 18.0921 31.0063 18.34 29.2417C18.6068 27.3428 17.8068 25.896 16.1694 25.1426C13.6099 23.9649 10.9046 23.1069 8.3277 21.9633C2.98493 19.592 0.852237 16.1056 1.23941 10.6366C1.59949 5.55113 4.6984 2.14604 10.1627 0.621811C15.1014 -0.755753 19.7106 0.308517 24.205 2.31633C26.3238 3.26292 27.3547 4.63536 25.9113 7.02629C24.7372 8.97142 23.5767 10.2784 21.1844 8.70091C19.1554 7.36302 16.8384 7.11522 14.4689 7.32072C12.6873 7.4752 11.1905 8.08989 10.8592 10.1062C10.5454 12.0154 11.4703 13.4175 13.0996 14.1568C15.6684 15.3226 18.3548 16.2262 20.9643 17.3061C25.7575 19.2899 28.3848 22.59 27.9657 28.0973C27.5636 33.3816 24.9261 36.9598 20.0624 38.4904C13.5876 40.5279 7.25305 39.988 1.25504 35.6477Z" stroke-linejoin="bevel" stroke-linecap="square" stroke-width="0" stroke="#000000" stroke-opacity="0" fill="#1d341e" transform="matrix(0.480499515035761 0 0 0.482020076237094 166.540442965482 418.188187994125)" id="shape9"/><path d="M8.89156 1.29542C9.23373 13.6632 9.39803 25.65 9.46633 37.6374C9.5176 46.6359 9.35445 55.6361 9.47091 64.6332C9.52022 68.442 7.65768 69.5283 4.22903 69.5057C0.91561 69.484 -0.010049 67.8619 8.20309e-05 64.8081C0.066672 44.6442 -0.010904 24.4797 0.056906 4.31586C0.072653 -0.375239 1.86465 -1.0108 8.89156 1.29542Z" stroke-linejoin="bevel" stroke-linecap="square" stroke-width="0" stroke="#000000" stroke-opacity="0" fill="#1d341e" transform="matrix(0.480499515035761 0 0 0.482020076237094 261.792409843653 403.557439053351)" id="shape10"/><path d="M6.89579 35.1575C6.88968 32.6727 6.80289 30.6755 6.89823 28.6872C7.02893 25.9597 6.26877 24.1943 3.11939 24.1318C0.470158 24.0793 0.0148356 22.2043 0.000186556 19.9726C-0.0140344 17.8017 0.782841 16.3617 3.05768 16.2898C6.50873 16.1806 7.06098 14.0704 6.91437 11.2413C6.81134 9.25352 7.01847 7.24742 6.8772 5.26445C6.63636 1.8834 7.53815 -0.0872987 11.4852 0.00297228C15.1306 0.0864073 16.669 1.58482 16.3753 5.16374C16.2806 6.3184 16.4678 7.4984 16.3505 8.64885C15.8676 13.3851 16.5439 16.9645 22.7105 16.3094C25.0392 16.062 26.3222 17.4742 26.3542 19.989C26.3877 22.6283 25.2884 24.4135 22.6225 24.0963C16.7995 23.4033 16.1074 26.5818 16.3109 31.2525C16.5709 37.2206 16.2461 43.2121 16.3973 49.1878C16.4922 52.9389 14.7011 54.106 11.2457 54.1299C7.6182 54.1549 6.7551 52.3031 6.86478 49.1024C7.01828 44.6229 6.89893 40.1341 6.89579 35.1575Z" stroke-linejoin="bevel" stroke-linecap="square" stroke-width="0" stroke="#000000" stroke-opacity="0" fill="#1d341e" transform="matrix(0.480499515035761 0 0 0.482020076237094 183.532614144616 410.975481582908)" id="shape11"/><path d="M6.74406 4.28214C6.81468 -0.580347 9.9984 -0.0150395 12.8202 0.0551515C15.763 0.128332 16.2851 2.0972 16.2102 4.51645C16.1741 5.68143 16.2796 6.8527 16.211 8.01456C15.923 12.8884 15.5623 17.5971 23.0278 16.3633C25.5622 15.9443 26.1769 18.0969 26.2035 20.3852C26.2336 22.974 24.9305 24.2776 22.5716 23.9826C16.4029 23.2114 15.8901 26.7008 16.1484 31.5183C16.4512 37.1672 16.1026 42.8481 16.2579 48.5091C16.3502 51.8771 15.5027 53.8869 11.6543 53.9854C7.46226 54.0928 6.65642 51.8337 6.72276 48.3044C6.8419 41.975 6.67723 35.6406 6.76475 29.3102C6.80565 26.3524 6.49296 24.0499 2.71232 23.8741C0.360761 23.7647 -0.0512265 21.8059 0.00474349 19.8263C0.0490545 18.2607 0.33183 16.4016 2.22117 16.5003C7.22978 16.7619 6.81218 13.4643 6.74382 10.2367C6.70506 8.40458 6.73607 6.57102 6.74406 4.28214Z" stroke-linejoin="bevel" stroke-linecap="square" stroke-width="0" stroke="#000000" stroke-opacity="0" fill="#1d341e" transform="matrix(0.480499515035761 0 0 0.482020076237094 294.198988754154 411.021968461656)" id="shape12"/><path d="M0.0792457 4.43131C0.199119 -0.228783 3.13186 -0.0914536 6.09219 0.0469124C9.55587 0.2089 9.31246 2.715 9.31191 5.07688C9.30971 14.3897 9.20931 23.704 9.35537 33.0145C9.40707 36.3055 8.45052 37.9184 4.91006 37.9807C1.14345 38.047 -0.0382473 36.311 0.000937684 32.8219C0.105552 23.5104 0.0483007 14.197 0.0792457 4.43131Z" stroke-linejoin="bevel" stroke-linecap="square" stroke-width="0" stroke="#000000" stroke-opacity="0" fill="#1d341e" transform="matrix(0.480499515035761 0 0 0.482020076237094 310.990380565026 418.741261647545)" id="shape13"/><path d="M9.55705 7.57634C6.71257 10.293 3.99028 10.4077 1.43046 7.99009C-0.149125 6.49833 -0.479874 4.54246 0.736435 2.59385C2.12804 0.364422 4.291 -0.503681 6.69963 0.286602C10.0828 1.39665 11.3232 3.77903 9.55705 7.57634Z" stroke-linejoin="bevel" stroke-linecap="square" stroke-width="0" stroke="#000000" stroke-opacity="0" fill="#1d341e" transform="matrix(0.480499515035761 0 0 0.482020076237094 310.858484467161 410.368131952424)" id="shape14"/>
</svg>